<?xml version="1.0" encoding="UTF-8" standalone="no"?>
<!-- Created with Inkscape (http://www.inkscape.org/) -->

<svg
   width="210mm"
   height="297mm"
   viewBox="0 0 210 297"
   version="1.1"
   id="svg1"
   inkscape:version="1.3.2 (1:1.3.2+202311252150+091e20ef0f)"
   sodipodi:docname="genus_2.svg"
   xmlns:inkscape="http://www.inkscape.org/namespaces/inkscape"
   xmlns:sodipodi="http://sodipodi.sourceforge.net/DTD/sodipodi-0.dtd"
   xmlns:xlink="http://www.w3.org/1999/xlink"
   xmlns="http://www.w3.org/2000/svg"
   xmlns:svg="http://www.w3.org/2000/svg">
  <sodipodi:namedview
     id="namedview1"
     pagecolor="#ffffff"
     bordercolor="#cccccc"
     borderopacity="1"
     inkscape:showpageshadow="0"
     inkscape:pageopacity="1"
     inkscape:pagecheckerboard="0"
     inkscape:deskcolor="#d1d1d1"
     inkscape:document-units="mm"
     inkscape:zoom="1.1474708"
     inkscape:cx="393.03832"
     inkscape:cy="539.01153"
     inkscape:window-width="1499"
     inkscape:window-height="991"
     inkscape:window-x="26"
     inkscape:window-y="23"
     inkscape:window-maximized="0"
     inkscape:current-layer="layer1"
     showguides="true" />
  <defs
     id="defs1">
    <linearGradient
       id="linearGradient18"
       inkscape:collect="always">
      <stop
         style="stop-color:#eaeaea;stop-opacity:1"
         offset="0"
         id="stop18" />
      <stop
         style="stop-color:#ffffff;stop-opacity:0;"
         offset="1"
         id="stop19" />
    </linearGradient>
    <linearGradient
       id="linearGradient16"
       inkscape:collect="always">
      <stop
         style="stop-color:#ffffff;stop-opacity:1;"
         offset="0"
         id="stop16" />
      <stop
         style="stop-color:#929292;stop-opacity:1"
         offset="1"
         id="stop17" />
    </linearGradient>
    <linearGradient
       id="linearGradient13"
       inkscape:collect="always">
      <stop
         style="stop-color:#dadada;stop-opacity:1"
         offset="0"
         id="stop13" />
      <stop
         style="stop-color:#ffffff;stop-opacity:0;"
         offset="1"
         id="stop14" />
    </linearGradient>
    <inkscape:path-effect
       effect="spiro"
       id="path-effect9"
       is_visible="true"
       lpeversion="1" />
    <inkscape:path-effect
       effect="spiro"
       id="path-effect8"
       is_visible="true"
       lpeversion="1" />
    <inkscape:path-effect
       effect="spiro"
       id="path-effect6"
       is_visible="true"
       lpeversion="1" />
    <inkscape:path-effect
       effect="spiro"
       id="path-effect4"
       is_visible="true"
       lpeversion="1" />
    <inkscape:path-effect
       effect="spiro"
       id="path-effect3"
       is_visible="true"
       lpeversion="1" />
    <inkscape:path-effect
       effect="spiro"
       id="path-effect1"
       is_visible="true"
       lpeversion="1" />
    <inkscape:path-effect
       effect="spiro"
       id="path-effect23"
       is_visible="true"
       lpeversion="1" />
    <inkscape:path-effect
       effect="spiro"
       id="path-effect21"
       is_visible="true"
       lpeversion="1" />
    <inkscape:path-effect
       effect="spiro"
       id="path-effect19"
       is_visible="true"
       lpeversion="1" />
    <inkscape:path-effect
       effect="spiro"
       id="path-effect17"
       is_visible="true"
       lpeversion="1" />
    <inkscape:path-effect
       effect="spiro"
       id="path-effect16"
       is_visible="true"
       lpeversion="1" />
    <inkscape:path-effect
       effect="spiro"
       id="path-effect15"
       is_visible="true"
       lpeversion="1" />
    <inkscape:path-effect
       effect="spiro"
       id="path-effect5"
       is_visible="true"
       lpeversion="1" />
    <inkscape:path-effect
       effect="spiro"
       id="path-effect2"
       is_visible="true"
       lpeversion="1" />
    <inkscape:path-effect
       effect="spiro"
       id="path-effect16-7"
       is_visible="true"
       lpeversion="1" />
    <inkscape:path-effect
       effect="spiro"
       id="path-effect23-5"
       is_visible="true"
       lpeversion="1" />
    <linearGradient
       inkscape:collect="always"
       xlink:href="#linearGradient13"
       id="linearGradient14"
       x1="52.526886"
       y1="82.009186"
       x2="55.087162"
       y2="96.860909"
       gradientUnits="userSpaceOnUse" />
    <linearGradient
       inkscape:collect="always"
       xlink:href="#linearGradient13"
       id="linearGradient14-7"
       x1="77.194672"
       y1="94.82312"
       x2="56.00948"
       y2="105.62293"
       gradientUnits="userSpaceOnUse" />
    <inkscape:path-effect
       effect="spiro"
       id="path-effect9-5"
       is_visible="true"
       lpeversion="1" />
    <linearGradient
       inkscape:collect="always"
       xlink:href="#linearGradient16"
       id="linearGradient17"
       x1="93.683601"
       y1="76.41787"
       x2="97.372879"
       y2="46.673103"
       gradientUnits="userSpaceOnUse" />
    <linearGradient
       inkscape:collect="always"
       xlink:href="#linearGradient18"
       id="linearGradient19"
       x1="94.954979"
       y1="70.085304"
       x2="92.879761"
       y2="81.153114"
       gradientUnits="userSpaceOnUse" />
  </defs>
  <g
     inkscape:label="Layer 1"
     inkscape:groupmode="layer"
     id="layer1">
    <path
       style="fill:none;fill-opacity:0.888889;stroke:#000000;stroke-width:0.564999;stroke-dasharray:none;stroke-opacity:1"
       d="m 57.070587,63.670587 c 3.907942,10.232366 11.686731,18.411756 19.053032,26.517985 7.3663,8.106228 14.723934,16.835858 17.441085,27.446718 2.754863,10.75813 0.402254,22.05727 -0.718772,33.1058 -0.560513,5.52426 -0.806434,11.1259 0.05769,16.61088 0.864124,5.48498 2.896951,10.88065 6.484612,15.11862 3.693377,4.36285 8.900557,7.31291 14.430137,8.76177 5.52958,1.44886 11.37176,1.45455 17.01692,0.55587 10.60313,-1.68795 20.60919,-6.55569 28.83271,-13.45852 8.22353,-6.90283 14.68952,-15.79431 19.21517,-25.53053 9.0513,-19.47243 10.26267,-41.82595 7.46977,-63.116829 C 183.914,71.089791 178.42472,52.649911 168.198,36.932216 157.97129,21.214521 142.71583,8.3705295 124.70729,3.1432936 115.70302,0.52967561 106.10929,-0.15264878 96.872727,1.4578877 87.636164,3.0684242 78.775638,6.9978129 71.568586,12.995007 64.361535,18.992201 58.851445,27.068995 56.178411,36.055809 c -2.673034,8.986814 -2.453006,18.855915 0.892176,27.614778 z"
       id="path15"
       sodipodi:nodetypes="ssssss"
       transform="translate(-19.8,41.152941)"
       inkscape:original-d="m 57.070587,63.670587 c -13.607073,24.946302 30.43863,35.798238 36.494117,53.964703 6.618736,19.85622 -14.184247,50.54403 5.823529,64.8353 9.402117,6.71579 20.463467,7.74856 31.447057,9.31764 56.98371,8.14053 70.24459,-59.26386 55.51765,-102.105879 C 174.30736,54.64068 94.146993,-4.3028086 57.070587,63.670587 Z"
       inkscape:path-effect="#path-effect15" />
    <path
       style="fill:none;fill-opacity:0.888889;stroke:#000000;stroke-width:0.564999;stroke-dasharray:none;stroke-opacity:1"
       d="m 73.052251,87.103879 c 3.854967,3.977207 8.838892,6.847976 14.21345,8.187031 5.374558,1.339054 11.12278,1.142165 16.393119,-0.5615 3.12064,-1.008763 6.07288,-2.536385 8.69883,-4.501167"
       id="path16"
       inkscape:original-d="m 73.052251,87.103879 c 3.739066,12.625464 19.165708,9.770693 30.606569,7.625531 3.12901,-0.58669 6.12734,-2.664387 8.69883,-4.501167"
       inkscape:path-effect="#path-effect16"
       sodipodi:nodetypes="csc" />
    <path
       style="fill:url(#linearGradient17);fill-opacity:1;stroke:#000000;stroke-width:0.564999;stroke-dasharray:none;stroke-opacity:1"
       d="m 78.035291,78.035293 c 3.167983,-4.922629 8.899359,-8.089969 14.752942,-8.152941 3.463235,-0.03726 6.931025,0.965841 9.839567,2.846206 2.90854,1.880366 5.24668,4.630793 6.63429,7.804109"
       id="path23"
       sodipodi:nodetypes="csc"
       transform="translate(-1.4517683,12.355269)"
       inkscape:original-d="m 78.035291,78.035293 c 4.618906,-11.307079 5.905224,-14.051419 14.752942,-8.152941 2.07652,1.384345 15.819187,8.686308 16.473857,10.650315"
       inkscape:path-effect="#path-effect23" />
    <path
       style="fill:none;fill-opacity:0.888889;stroke:#000000;stroke-width:0.564999;stroke-dasharray:none;stroke-opacity:1"
       d="m 73.76684,87.818468 c 8.140822,6.807424 19.589288,9.454278 29.89198,6.910942 3.33535,-0.823368 6.5442,-2.15714 9.48048,-3.940601"
       id="path16-5"
       transform="translate(25.880514,101.54781)"
       inkscape:original-d="m 73.76684,87.818468 c 3.739066,12.625462 18.451119,9.056104 29.89198,6.910942 5.62526,-1.054738 9.48048,0.218044 9.48048,-3.940601"
       inkscape:path-effect="#path-effect16-7"
       sodipodi:nodetypes="csc" />
    <path
       style="fill:url(#linearGradient19);fill-opacity:1;stroke:#000000;stroke-width:0.564999;stroke-dasharray:none;stroke-opacity:1"
       d="m 77.790033,77.776134 c 3.308442,-4.862133 9.117259,-7.919402 14.9982,-7.893782 3.410547,0.01486 6.810987,1.021624 9.679897,2.86592 2.8689,1.844295 5.19654,4.519864 6.62599,7.616431"
       id="path23-6"
       sodipodi:nodetypes="csc"
       transform="translate(25.407562,114.14778)"
       inkscape:original-d="m 77.790033,77.776134 c 4.618906,-11.307079 6.150482,-13.79226 14.9982,-7.893782 2.07652,1.384345 15.651217,8.518344 16.305887,10.482351"
       inkscape:path-effect="#path-effect23-5" />
    <path
       style="opacity:1;mix-blend-mode:normal;fill:url(#linearGradient14);fill-opacity:0.888889;stroke:#515151;stroke-width:0.264999;stroke-dasharray:none;stroke-opacity:1"
       d="m 48.172824,91.844766 c -0.623742,2.076559 -0.56952,4.294348 -0.998062,6.41979 -0.519436,2.576244 -1.736684,4.965304 -2.330823,7.525354 -0.29707,1.28002 -0.435581,2.61165 -0.241498,3.91129 0.194083,1.29963 0.738738,2.56909 1.667611,3.49856 1.03674,1.0374 2.492977,1.59053 3.954354,1.71467 1.461378,0.12414 2.932481,-0.15318 4.331084,-0.59471 2.797206,-0.88305 5.398425,-2.42621 8.2963,-2.88059 2.181891,-0.34212 4.407426,-0.0456 6.615902,-0.0636 1.104238,-0.009 2.214586,-0.0983 3.281899,-0.3816 1.067314,-0.28331 2.093918,-0.76787 2.91873,-1.50211 0.852305,-0.75871 1.464967,-1.76369 1.851001,-2.83749 0.386033,-1.0738 0.553155,-2.21667 0.599975,-3.35679 0.115635,-2.81582 -0.499872,-5.648292 -1.694152,-8.200923 -1.194279,-2.55263 -2.959742,-4.826029 -5.079454,-6.683189 -3.49353,-3.060814 -8.134272,-5.005645 -12.758341,-4.568244 -2.312035,0.2187 -4.578508,1.033501 -6.440855,2.420945 -1.862346,1.387443 -3.305586,3.354482 -3.973671,5.578667 z"
       id="path8"
       inkscape:original-d="m 48.172824,91.844766 c -0.770514,1.69513 -0.156761,4.478328 -0.998062,6.41979 -1.816222,4.191284 -5.172797,11.093924 -0.90471,14.935204 5.037852,4.53407 10.878514,-1.76063 16.581738,-1.76063 4.997452,0 8.713135,2.15606 12.816531,-1.94734 1.588633,-1.58863 2.188038,-4.04696 2.450976,-6.19428 C 78.917648,96.777655 76.681001,92.192577 71.345691,88.413398 63.373292,82.766287 50.53366,86.65093 48.172824,91.844766 Z"
       inkscape:path-effect="#path-effect9"
       sodipodi:nodetypes="ssssssss"
       transform="matrix(0.80246862,0,0,0.85347104,12.036399,16.551894)" />
    <path
       style="opacity:0.34;fill:url(#linearGradient14-7);fill-opacity:0.888889;stroke:#fafafa;stroke-width:0.264999;stroke-dasharray:none;stroke-opacity:1"
       d="m 48.172824,91.844766 c -0.623742,2.076559 -0.56952,4.294348 -0.998062,6.41979 -0.519436,2.576244 -1.736684,4.965304 -2.330823,7.525354 -0.29707,1.28002 -0.435581,2.61165 -0.241498,3.91129 0.194083,1.29963 0.738738,2.56909 1.667611,3.49856 1.03674,1.0374 2.492977,1.59053 3.954354,1.71467 1.461378,0.12414 2.932481,-0.15318 4.331084,-0.59471 2.797206,-0.88305 5.398425,-2.42621 8.2963,-2.88059 2.181891,-0.34212 4.407426,-0.0456 6.615902,-0.0636 1.104238,-0.009 2.214586,-0.0983 3.281899,-0.3816 1.067314,-0.28331 2.093918,-0.76787 2.91873,-1.50211 0.852305,-0.75871 1.464967,-1.76369 1.851001,-2.83749 0.386033,-1.0738 0.553155,-2.21667 0.599975,-3.35679 0.115635,-2.81582 -0.499872,-5.648292 -1.694152,-8.200923 -1.194279,-2.55263 -2.959742,-4.826029 -5.079454,-6.683189 -3.49353,-3.060814 -8.134272,-5.005645 -12.758341,-4.568244 -2.312035,0.2187 -4.578508,1.033501 -6.440855,2.420945 -1.862346,1.387443 -3.305586,3.354482 -3.973671,5.578667 z"
       id="path8-2"
       inkscape:original-d="m 48.172824,91.844766 c -0.770514,1.69513 -0.156761,4.478328 -0.998062,6.41979 -1.816222,4.191284 -5.172797,11.093924 -0.90471,14.935204 5.037852,4.53407 10.878514,-1.76063 16.581738,-1.76063 4.997452,0 8.713135,2.15606 12.816531,-1.94734 1.588633,-1.58863 2.188038,-4.04696 2.450976,-6.19428 C 78.917648,96.777655 76.681001,92.192577 71.345691,88.413398 63.373292,82.766287 50.53366,86.65093 48.172824,91.844766 Z"
       inkscape:path-effect="#path-effect9-5"
       sodipodi:nodetypes="ssssssss"
       transform="matrix(0.79558239,0,0,0.8682405,12.465313,14.874206)" />
  </g>
</svg>
