<?xml version="1.0" encoding="UTF-8" standalone="no"?>
<!-- Created with Inkscape (http://www.inkscape.org/) -->

<svg
   width="210mm"
   height="297mm"
   viewBox="0 0 210 297"
   version="1.1"
   id="svg1"
   sodipodi:docname="two_holes.svg"
   inkscape:version="1.3.2 (1:1.3.2+202311252150+091e20ef0f)"
   xmlns:inkscape="http://www.inkscape.org/namespaces/inkscape"
   xmlns:sodipodi="http://sodipodi.sourceforge.net/DTD/sodipodi-0.dtd"
   xmlns="http://www.w3.org/2000/svg"
   xmlns:svg="http://www.w3.org/2000/svg">
  <sodipodi:namedview
     id="namedview1"
     pagecolor="#ffffff"
     bordercolor="#cccccc"
     borderopacity="1"
     inkscape:showpageshadow="0"
     inkscape:pageopacity="1"
     inkscape:pagecheckerboard="0"
     inkscape:deskcolor="#d1d1d1"
     inkscape:document-units="mm"
     inkscape:zoom="0.96379011"
     inkscape:cx="361.59325"
     inkscape:cy="501.66524"
     inkscape:window-width="1920"
     inkscape:window-height="971"
     inkscape:window-x="0"
     inkscape:window-y="0"
     inkscape:window-maximized="1"
     inkscape:current-layer="layer3" />
  <defs
     id="defs1">
    <inkscape:path-effect
       effect="spiro"
       id="path-effect6"
       is_visible="true"
       lpeversion="1" />
    <inkscape:path-effect
       effect="spiro"
       id="path-effect1"
       is_visible="true"
       lpeversion="1" />
  </defs>
  <g
     inkscape:label="Layer 1"
     inkscape:groupmode="layer"
     id="layer1">
    <path
       style="fill:none;fill-opacity:0.75;stroke:#000000;stroke-width:1.5;stroke-dasharray:none"
       d="m 80.435475,65.611189 c 7.559558,6.561677 13.502075,15.150081 22.236425,20.040239 4.70625,2.634919 9.99785,4.0514 15.30287,5.025248 5.30501,0.973848 10.68203,1.530292 15.97215,2.582016 5.29013,1.051723 10.55031,2.62832 15.13582,5.468155 4.58551,2.839833 8.47252,7.051683 10.14107,12.180773 1.45956,4.48665 1.15437,9.36539 0.27452,14.00071 -3.51823,18.53519 -16.35899,34.90565 -33.21738,43.37476 -8.25111,4.14509 -17.45934,6.49972 -26.691515,6.32773 C 90.35726,174.43883 81.118872,171.68243 73.57238,166.36143 69.041642,163.16682 65.187621,159.127 61.207183,155.26835 57.226745,151.40969 53.021075,147.66001 48.041665,145.22309 40.167403,141.36943 31.017672,141.0997 22.785476,138.08547 16.326641,135.72056 10.508917,131.65212 6.0204418,126.44031 1.5319665,121.2285 -1.6233454,114.88814 -3.1399181,108.17923 -6.1730636,94.761428 -2.3620622,80.080335 6.4411913,69.509609 15.244445,58.938884 28.75636,52.575932 42.501504,52.020496 56.246648,51.465061 70.046787,56.593835 80.435475,65.611189 Z"
       id="path1"
       inkscape:path-effect="#path-effect1"
       inkscape:original-d="m 80.435475,65.611189 c 5.136457,4.62281 16.97613,15.589217 22.236425,20.040239 19.44681,16.454992 42.78363,-2.280361 56.55191,25.256192 1.5992,3.19839 0.27452,10.47155 0.27452,14.00071 0,24.20454 -12.45513,34.0114 -33.21738,43.37476 -17.6694,7.96856 -36.657318,10.50511 -52.70857,-1.92166 -8.123198,-6.28893 -15.867351,-16.9969 -25.530715,-21.13834 -8.756841,-3.75293 -16.46588,-2.74246 -25.256189,-7.13762 C -26.053752,113.66586 41.595243,30.654981 80.435475,65.611189 Z"
       transform="matrix(1.2399713,0,0,1.2255077,8.5852659,-27.90897)"
       sodipodi:nodetypes="sssssssss"
       inkscape:label="boundary" />
  </g>
  <g
     inkscape:groupmode="layer"
     id="layer3"
     inkscape:label="Layer 2">
    <path
       style="fill:none;stroke:#000000;stroke-width:1.0110551;stroke-dasharray:none;fill-opacity:1"
       d="m 125.50233,140.22466 c -0.90903,-2.87837 -1.03931,-6.03487 -0.36994,-8.96275 0.66935,-2.92787 2.13587,-5.61621 4.16409,-7.63335 1.04422,-1.0385 2.2252,-1.8961 3.40023,-2.75113 2.74149,-1.9949 5.50955,-4.01665 8.60529,-5.25902 3.09576,-1.24233 6.59954,-1.64956 9.72226,-0.37266 1.9282,0.78845 3.64759,2.20581 4.88026,4.02299 1.23266,1.81718 1.97395,4.02731 2.10405,6.27318 1.49948,6.18143 0.0536,13.07998 -3.7371,17.83076 -3.79073,4.75078 -9.81765,7.21758 -15.57783,6.37596 -5.36911,-0.78447 -10.37871,-4.40136 -13.19131,-9.52398 z"
       id="path6-5"
       sodipodi:nodetypes="csssssc"
       inkscape:label="hole_2" />
    <path
       style="fill:none;stroke:#000000;stroke-width:0.80623662;stroke-dasharray:none;fill-opacity:1"
       d="m 82.389063,85.72545 c 0.682466,3.014586 0.526911,6.242333 -0.44169,9.165012 -0.968602,2.922673 -2.746635,5.529388 -5.048631,7.401618 -1.18518,0.96392 -2.496312,1.73117 -3.80099,2.49634 -3.044002,1.78525 -6.118194,3.59546 -9.462247,4.58204 -3.344053,0.98657 -7.036635,1.08547 -10.176206,-0.49711 -1.938609,-0.97721 -3.601312,-2.57634 -4.719379,-4.53893 -1.118068,-1.9626 -1.687268,-4.28124 -1.615606,-6.581155 -0.993403,-6.433126 1.151833,-13.331282 5.544814,-17.829721 4.39298,-4.498439 10.907753,-6.468185 16.838798,-5.091221 5.52836,1.283474 10.420175,5.420312 12.881137,10.893127 z"
       id="path6"
       sodipodi:nodetypes="csssssc"
       inkscape:label="hole_1" />
  </g>
</svg>
